<svg xmlns="http://www.w3.org/2000/svg" viewBox="0 0 1000 774.6"><defs><style>.cls-1{fill:#bf0000;}.cls-2{fill:#fdd332;}.cls-3{fill:#28ca51;}</style></defs><title>Asset 3</title><g id="Layer_2" data-name="Layer 2"><g id="Layer_1-2" data-name="Layer 1"><path class="cls-1" d="M233.6,0l-.8,254V774.4h-131A101.83,101.83,0,0,1,0,672.6V0Z"/><path class="cls-2" d="M1000,297V673.8A100.72,100.72,0,0,1,899.4,774.6H232.8V254c36.8-107.6,115.6-136.8,189.6-136.8,89.6,0,151.8,53.2,177.4,127.2.8,2.2,1.6,4.8,2.4,7.2.2.6.2,1,.4,1.6a39.71,39.71,0,0,1,1.8-5.2,166.45,166.45,0,0,1,17-36.2.7.7,0,0,1,.2-.4c17.4-28.4,42.8-52.2,73.2-68.6a200.6,200.6,0,0,1,62.8-22.2c3-.6,5.8-1.2,8.6-1.6,4.6-.6,9-1.2,13.8-1.6h.6c4.8-.4,9.8-.6,14.8-.6h2.2c51.4,0,98.4,17.6,134.2,47a184.14,184.14,0,0,1,55.8,75A167.17,167.17,0,0,1,999.8,297Z"/><path class="cls-3" d="M1000,296.94v376.8a100.72,100.72,0,0,1-100.6,100.8H603.15l-.2-122.2-.4-399.2a39.71,39.71,0,0,1,1.8-5.2,166.45,166.45,0,0,1,17-36.2.7.7,0,0,1,.2-.4c17.4-28.4,42.8-52.2,73.2-68.6a200.6,200.6,0,0,1,62.8-22.2c3-.6,5.8-1.2,8.6-1.6,4.6-.6,9-1.2,13.8-1.6h.6c4.8-.4,9.8-.6,14.8-.6h2.2c51.4,0,98.4,17.6,134.2,47a184.14,184.14,0,0,1,55.8,75,167.17,167.17,0,0,1,12.2,58.2Z"/></g></g></svg>