<svg xmlns="http://www.w3.org/2000/svg" viewBox="0 0 100.69 108.9"><defs><style>.cls-1{fill:#bf0000;}.cls-2{fill:#28ca51;}.cls-3{fill:#fdd332;}</style></defs><title>Asset 2</title><g id="Layer_2" data-name="Layer 2"><g id="Layer_1-2" data-name="Layer 1"><ellipse class="cls-1" cx="11.12" cy="12.4" rx="11.12" ry="12.4"/><ellipse class="cls-2" cx="89.57" cy="12.4" rx="11.12" ry="12.4"/><rect class="cls-1" y="43.34" width="22.24" height="65.56" rx="1.54"/><path class="cls-3" d="M63,108.9H47.77a8.51,8.51,0,0,1-8.5-8.51V8.5A8.51,8.51,0,0,1,47.77,0h7.08a8.5,8.5,0,0,1,8.5,8.5V93.84c6.21-.07,20.58.09,30.06.52,1.14,0,4.91,4.66,4.64,7.89-.17,2.06.83,5.45-5.41,6.65C83.5,108.9,69.42,108.86,63,108.9Z"/><rect class="cls-2" x="78.45" y="43.34" width="22.24" height="65.56" rx="1.54"/></g></g></svg>